<?xml version="1.0" encoding="UTF-8"?>
<svg id="Layer_1" xmlns="http://www.w3.org/2000/svg" version="1.1" viewBox="0 0 1000 1000">
  <!-- Generator: Adobe Illustrator 29.3.1, SVG Export Plug-In . SVG Version: 2.1.0 Build 151)  -->
  <defs>
    <style>
      .st0 {
        fill: #3264af;
      }

      .st1 {
        fill: #222932;
      }

      .st2 {
        fill: #fff;
      }

      .st3 {
        fill: #f0f1f1;
      }

      .st4 {
        fill: #3364af;
      }

      .st5 {
        fill: #3162ae;
      }

      .st6 {
        fill: #dbe8f7;
      }

      .st7 {
        display: none;
      }
    </style>
  </defs>
  <g class="st7">
    <g>
      <path class="st4" d="M483.3,608.6c17.6-18.5,37.3-35.2,55.4-53.3-4.3-21.8-6.8-44.1-5.9-66.5,1.5-41.2,15.5-81.7,42.5-113.1,2.5-2.9,19.4-18.4,19.1-20.1-21.5-22.1-52.9-33.2-83.3-36-55.1-5.1-113.6,10.5-150.5,53.5-1.1,1.3-8.2,10.3-7.6,11.1l58.1,36.4c2.1,0,9.9-10.2,12.6-12.6,38-34.2,133.5-31.4,113.2,39.4-6.7,23.3-30.4,44-47.5,60.6-39.6,38.5-81.8,74.4-120.2,114.1v51h-13.1v-57.1c0-1.4,13.8-11.4,13-14.9l-24.9-35.8-1.1-4.3c38.2-15.7,64.4-49.5,69.5-90.6.4-3.5,1-8.5,1.2-12s-.2-23.9-1-24.8-6.1.3-9.4-1.2c-10.4-4.5-43.7-26.8-53.5-34.4s-7.6-6.6-8.2-7.9c-1.1-2.4-.9-11.5,0-14.1,1.8-5.2,21-23.2,20.7-24.8-20.1-13.2-44.4-21.7-68.3-24.6-9-1.1-18.1-.7-27.1-2.2H112.6s0-12.1,0-12.1h166.2c33.3,2.2,66.5,9.4,93.9,29.3,13.3-8.6,26.1-16.9,41-22.7,45.8-17.6,105-17.4,150.9-.5,28-.4,63,.1,90,0,9.5-.9,23.2-6.8,33.8-8.7,36.9-6.6,80.5-4.9,116.4,5.9,32.7,9.8,60.3,29.3,82.5,54.9-5.7,9.2-59,54.1-59.6,59.5s3.8,7,5.3,9.9c18.4,36,21.4,77.4,2.2,113.7-1.5,2.9-8.8,12.7-8.4,14.6l59.4,59c.5,1.3-.2,1.9-.8,2.9-2.6,3.9-15.6,16-19.7,19.7-42.4,37.2-98.8,45.4-153.6,42.4-59.7-3.2-114.1-35.8-148.4-83.9h-80.3ZM726.6,319c-117.6,4.6-199.7,98.8-178.1,216.9,13.4,73.3,72.5,127.7,145,140.9,60.9,11.1,133.2-1.9,175.7-49.4l-50.1-49.1c-1.6-.3-7.6,6.9-9.5,8.4-68.4,53.5-175.5,15.9-181.7-74.7-5.7-82,56-138.1,137.4-121.2s38.7,16,53.9,29.8l50.1-49.9c-36.6-37.9-90.6-53.7-142.6-51.7ZM751.8,443.1c-1.6.4-4.2,2.6-5,4.1l-35.7,96.6c-4,10.3,9.6,17.5,14.9,7.9l35.9-97.4c1.8-6.4-3.4-12.8-10.1-11.2ZM697.1,465.8c8.1-7.5,3.7-18.4-7.7-15.2l-43,39.8c-7,8,4.6,15.8,10.1,21.3,10.1,10,21.3,19.2,31.3,29.3,6.8,5.1,16.3-2,12.9-9.8s-8.4-9-10.8-11.4c-7.1-7.1-16.5-14.1-23.3-21.2s-1.7-1.1-1.4-2.4l31.9-30.3ZM820.3,508.2c4.5-4.5,11.5-8.9,7.5-16.3l-42.9-40.9c-8.7-4.1-16.4,3.7-11.1,12.1l34.8,32.9-34.8,32.9c-6,9.2,4.2,18.3,12.5,11.5,10.7-11.4,23-21.2,34-32.1Z"/>
      <path class="st4" d="M191.4,512.6v-120.7c0-1.1,2.5-1.4,3.5-1.6,17-2,50-.9,67.8,0,43.5,2.3,72.8,22.2,69.2,69.3-2.3,30-30.5,53-60.1,53h-80.3Z"/>
      <path class="st4" d="M267.2,577.3c17.6,28.3,37.7,54.9,56.4,82.5s6.3,8.7,8.3,13.5h-140.4v-96h75.8Z"/>
      <path class="st6" d="M697.1,465.8l-31.9,30.3c-.3,1.3.8,1.7,1.4,2.4,6.8,7.1,16.1,14.1,23.3,21.2,2.4,2.4,9.8,9,10.8,11.4,3.4,7.8-6.1,15-12.9,9.8-10.1-10.1-21.2-19.3-31.3-29.3s-17.2-13.3-10.1-21.3l43-39.8c11.4-3.1,15.8,7.7,7.7,15.2Z"/>
      <path class="st6" d="M820.3,508.2c-11,11-23.4,20.7-34,32.1-8.3,6.8-18.5-2.4-12.5-11.5l34.8-32.9-34.8-32.9c-5.3-8.4,2.4-16.3,11.1-12.1l42.9,40.9c4,7.4-3,11.8-7.5,16.3Z"/>
      <path class="st6" d="M751.8,443.1c6.7-1.6,11.9,4.7,10.1,11.2l-35.9,97.4c-5.3,9.6-18.9,2.4-14.9-7.9l35.7-96.6c.9-1.5,3.5-3.7,5-4.1Z"/>
    </g>
  </g>
  <g class="st7">
    <g>
      <path class="st0" d="M635.9,672.2c-6.5-3.3-16.3-10-22.5-14.3-18.1-12.5-36.4-31-48.2-49.3h-81.8l55.4-53.3c-.6-10.1-3.8-19.9-4.9-30.1-5.3-53.2,5.2-104.8,39.4-146.4,6.7-8.1,14.6-14.9,21.1-23.1-20.7-22.3-52.5-33-82.3-36-55.9-5.7-115,10.5-152,54.1-1,1.2-6.9,8.6-7.1,9.2-.2,1,.2,1.4,1,1.9l58,37c17.4-25.7,48.5-36.3,78.8-34.4s51.1,16.8,48,51-58.3,76.6-82.8,100c-28.8,27.4-57.4,55.1-86.3,82.3l-.5,52.5c-4.4,0-8.8,0-13.1,0l.2-55.9c1.1-4.7,14.2-13.8,13.9-15.3l-28.2-39.5c42.3-19.3,69-54.8,71.7-102,.2-3.4,0-25.7-1.1-26.8s-5,.2-6.5,0c-17.7-12.3-40.8-23.1-57.5-36.5s-6.6-5.6-7.2-6.9c-1.1-2.4-.9-11.5,0-14.1,1.8-5.3,21-23.2,20.7-24.8-27.3-19.3-61.6-25.1-94.4-26.9H112.6c0-4,0-8,0-12.1h168.2c32.6,2.7,65.1,9.7,91.9,29.3,13.3-8.6,26.1-16.9,41-22.7,45.9-17.6,104.9-17.4,150.9-.5,28.7,0,61.6,1.2,90,0,9.5-.9,23.2-6.8,33.8-8.7,70.7-12.6,153.1,2.7,199,61.5l-59.4,57.9c-1.1,4.1,3.5,7.6,5.1,10.7,20.9,41,21.6,89.6-6.3,127.5l58.7,58.5,1,2.1c-21,26.2-50.4,45.8-82.9,55.6-49.4,14.9-121.3,12.3-167.7-11.6ZM726.6,319c-110.9,4.3-192.5,89.1-180.5,202.1,8.5,80.1,68.8,141.5,147.3,155.7,60.8,11,133.3-1.8,175.7-49.4l-50.1-49.1c-18.9,17.6-42.3,30.4-68.6,32.2-76.5,5.3-127.5-45.2-122.8-121.8,4.5-71.5,69.6-112,137.5-98,20.5,4.2,38.4,16.1,53.9,29.8l50.1-49.9c-36.6-37.9-90.6-53.7-142.6-51.7ZM751.8,443.1c-1.6.4-4.2,2.6-5,4.1l-35.9,97.4c-3.1,10.1,10.1,16.2,15.1,7l35.9-97.4c2.2-5.9-4.2-12.6-10.1-11.2ZM697.1,465.8c8.1-7.5,3.7-18.4-7.7-15.3l-43,39.8c-7,8,4.6,15.8,10.1,21.3,10.2,10,21.4,19.1,31.3,29.3,6.8,5.1,16.3-2,12.9-9.8s-8.4-9-10.8-11.4c-7.1-7.1-16.5-14.1-23.3-21.2-.7-.7-1.7-1.1-1.4-2.4l31.9-30.3ZM820.3,508.2c4.5-4.5,11.5-8.9,7.5-16.3l-42.9-40.9c-8.7-4.2-16.4,3.7-11.1,12.1l34.8,32.9-34.8,32.9c-6,9.2,4.2,18.3,12.5,11.5,10.7-11.4,23-21.2,34-32.1Z"/>
      <path class="st3" d="M112.6,324.7h155.1c32.8,1.7,67.1,7.5,94.4,26.8.4,1.6-18.9,19.5-20.7,24.8s-1.1,11.7,0,14.1,5.7,5.7,7.2,6.9c16.7,13.4,39.8,24.2,57.5,36.5,1.5.3,6.2-.2,6.5,0,1.1,1.1,1.3,23.4,1.1,26.8-2.8,47.1-29.5,82.7-71.7,102l28.2,39.5c.3,1.5-12.8,10.5-13.9,15.3l-.2,55.9c-8.1,0-16.2,0-24.2,0-21.1-32.6-43.6-64.4-66.2-96h-74.2v96c-26.3,0-52.5,0-78.8,0,1.1-116.1-1.4-232.4,0-348.5ZM191.4,512.6c39.5-3.3,102.1,12,129.7-24.3,13.7-18,14.4-49.3,3.2-68.6-12.7-21.9-39-28-62.7-29.3s-49.9-2-66.7,0-3.5.5-3.5,1.6v120.7Z"/>
      <path class="st3" d="M369.2,673.2l.5-52.5c29-27.2,57.6-54.9,86.3-82.3,24.6-23.4,79.7-65.5,82.8-100s-15.7-48.9-48-51-61.5,8.7-78.8,34.4l-58-37c-.8-.5-1.2-.9-1-1.9s6-7.9,7.1-9.2c37-43.6,96.1-59.7,152-54.1s61.5,13.7,82.3,36c-6.5,8.2-14.4,15-21.1,23.1-34.2,41.6-44.7,93.2-39.4,146.4,1,10.1,4.3,20,4.9,30.1l-55.4,53.3h81.8c11.8,18.3,30.1,36.8,48.2,49.3,6.2,4.3,16.1,11,22.5,14.3-1,1.7-3.8,1-5.5,1-87,.9-174.1,0-261.1,0Z"/>
      <path class="st0" d="M331.8,673.2c-46.8,0-93.6,0-140.4,0v-96h74.2c22.6,31.6,45.1,63.4,66.2,96Z"/>
      <path class="st3" d="M726.6,319c52-2,106,13.8,142.6,51.7l-50.1,49.9c-15.4-13.6-33.4-25.5-53.9-29.8-67.8-14.1-133,26.5-137.5,98-4.8,76.5,46.3,127,122.8,121.8,26.3-1.8,49.6-14.7,68.6-32.2l50.1,49.1c-42.5,47.6-114.9,60.4-175.7,49.4-78.5-14.3-138.8-75.6-147.3-155.7-12-113,69.6-197.8,180.5-202.1Z"/>
      <path class="st3" d="M697.1,465.8l-31.9,30.3c-.3,1.3.8,1.7,1.4,2.4,6.8,7.1,16.1,14.1,23.3,21.2s9.8,9,10.8,11.4c3.4,7.8-6.1,15-12.9,9.8-10-10.2-21.2-19.3-31.3-29.3s-17.2-13.3-10.1-21.3l43-39.8c11.4-3.1,15.8,7.7,7.7,15.3Z"/>
      <path class="st3" d="M820.3,508.2c-11,11-23.4,20.7-34,32.1-8.3,6.8-18.5-2.4-12.5-11.5l34.8-32.9-34.8-32.9c-5.3-8.4,2.4-16.3,11.1-12.1l42.9,40.9c4,7.4-3,11.8-7.5,16.3Z"/>
      <path class="st3" d="M751.8,443.1c5.9-1.5,12.3,5.3,10.1,11.2l-35.9,97.4c-5.1,9.2-18.2,3.1-15.1-7l35.9-97.4c.9-1.5,3.4-3.7,5-4.1Z"/>
      <path class="st0" d="M191.4,512.6v-120.7c0-1.1,2.5-1.4,3.5-1.6,16.8-2,49.1-.9,66.7,0s49.9,7.4,62.7,29.3c11.2,19.3,10.5,50.6-3.2,68.6-27.6,36.3-90.2,21-129.7,24.3Z"/>
    </g>
  </g>
  <g>
    <path class="st5" d="M117,327c0-4,0-8,0-12h163.5c28.7,2,56.6,7.2,81.8,21.2,2.7,1.5,11.1,8.1,13.1,7.9,40-31.1,93.5-39.1,143-34.1s32.9,9.6,46,11c27.5,0,61,0,90,0,77.9-24.6,176-15,229.4,52.3l-58.8,57.4c-1.1,4,4.3,9.1,6,12.6,19.8,40.2,19.7,88.7-8.1,125l59,57.1c.5.6,1,1.2,1,2,0,1.5-17.8,19.1-20.6,21.5-59,51-156.2,53.4-225.5,23-7.6-5.4-16-9.5-23.7-14.8-19.2-13.2-35.3-31.2-49.8-49.2h-79.5c17.4-18.4,37-34.6,54.8-52.7-.8-10-3.8-19.6-4.8-29.8-5.1-51.9,4.9-103,38-144,6.9-8.5,15.2-15.3,21.9-23.9-34.3-35.8-92.6-41.3-139.1-33.3-36,6.1-69.1,23.3-92.8,51.2-1,1.2-6.8,8.5-7,9-.3,1.1.3,1.3,1,1.9l57.4,36.6c17.5-25.8,48.6-36.1,79-34.1,31.6,2.1,49.5,17.4,46.5,50.5-2.3,25.1-27.4,47.9-44.5,64.5-40.2,39.4-83,76.4-123,116l-.5,52c-4.3,0-8.7,0-13,0l.2-55.3c1.1-4.7,14.1-13.6,13.7-15.1l-27.9-39.1c49.2-22.2,74.5-66,71-120-.7-10.1-.9-6.3-7.5-7.5-17.5-12.1-40.4-22.9-56.9-36.1s-6.6-5.5-7.2-6.8c-1.1-2.3-.9-11.4,0-13.9,1.8-5.2,20.8-23,20.5-24.5-27.1-19.1-60.9-24.8-93.5-26.6H117ZM725.8,321.3c-120.3,3.8-203.6,104.2-175.3,223.7,16.2,68.3,73.1,118.1,141.5,130.5,60.2,10.9,131.9-2,174-48.9l-49.6-48.6c-13.2,11.8-28,22.4-45.1,27.7-20.1,6.1-49.5,6-69.7.2-107.3-30.9-97.4-200.4,16.1-214.8,36.4-4.6,72.2,3.9,97.9,30.8l50.5-49.5c-36.2-37.4-88.8-52.8-140.2-51.2ZM749.8,444.2c-1.6.4-4.1,2.6-5,4.1l-35.3,95.7c-3.9,10.2,9.5,17.3,14.8,7.8l35.6-96.4c1.8-6.4-3.3-12.7-10-11.1ZM695.6,466.6c8-7.4,3.7-18.2-7.6-15.1l-42.6,39.4c-7,7.9,4.5,15.7,10,21.1,10,9.9,21.1,19,31,29,6.7,5.1,16.1-2,12.8-9.7s-8.3-8.9-10.7-11.3c-7.1-7-16.3-13.9-23-21s-1.7-1.1-1.4-2.4l31.6-30ZM817.6,508.6c4.5-4.4,11.4-8.8,7.4-16.2l-42.5-40.5c-8.6-4.1-16.2,3.7-11,12l34.4,32.5-34.4,32.5c-5.9,9.1,4.2,18.2,12.4,11.4,10.6-11.3,22.8-20.9,33.7-31.8Z"/>
    <path class="st1" d="M117,327h153.5c32.5,1.7,66.4,7.4,93.5,26.5.4,1.6-18.7,19.3-20.5,24.5s-1.1,11.6,0,13.9,5.6,5.6,7.2,6.8c16.5,13.2,39.3,24,56.9,36.1,6.6,1.2,6.8-2.6,7.5,7.5,3.5,54.1-21.8,97.9-71,120l27.9,39.1c.3,1.5-12.7,10.4-13.7,15.1l-.2,55.3c-8,0-16,0-24,0-20.8-32.3-43-63.8-65.5-95h-73.5v95c-26,0-52,0-78,0,1.1-115-1.4-230.1,0-345ZM195,513c40.5-3.4,106.8,13.2,131.5-29,11.2-19.1,10.4-50-3.1-67.9-13.4-17.7-37.7-23-58.9-24.1s-49.6-2-66.1,0-3.4.5-3.4,1.6v119.5Z"/>
    <path class="st1" d="M371,672l.5-52c40-39.6,82.8-76.6,123-116,17.1-16.7,42.1-39.4,44.5-64.5,3.1-33.1-14.9-48.4-46.5-50.5-30.4-2-61.6,8.2-79,34.1l-57.4-36.6c-.7-.6-1.2-.8-1-1.9s6-7.9,7-9c23.7-27.9,56.7-45.1,92.8-51.2,46.5-7.9,104.9-2.4,139.1,33.3-6.7,8.5-15,15.4-21.9,23.9-33.1,40.9-43.1,92.1-38,144,1,10.1,4,19.8,4.8,29.8-17.8,18.1-37.4,34.3-54.8,52.7h79.5c14.4,18,30.6,36.1,49.8,49.2s16.1,9.3,23.7,14.8c-88.7,0-177.3,0-266,0Z"/>
    <path class="st5" d="M334,672c-46.3,0-92.7,0-139,0v-95h73.5c22.5,31.2,44.7,62.7,65.5,95Z"/>
    <path class="st1" d="M725.8,321.3c51.4-1.6,104,13.8,140.2,51.2l-50.5,49.5c-25.7-26.9-61.5-35.4-97.9-30.8-113.5,14.4-123.4,183.9-16.1,214.8,20.1,5.8,49.6,5.9,69.7-.2,17.2-5.2,31.9-15.9,45.1-27.7l49.6,48.6c-42.1,46.9-113.8,59.8-174,48.9-68.4-12.4-125.3-62.2-141.5-130.5-28.3-119.5,55-220,175.3-223.7Z"/>
    <path class="st2" d="M695.6,466.6l-31.6,30c-.3,1.3.8,1.7,1.4,2.4,6.7,7.1,16,14,23,21s9.7,8.9,10.7,11.3c3.4,7.7-6.1,14.8-12.8,9.7-10-10-21-19.1-31-29s-17-13.2-10-21.1l42.6-39.4c11.3-3.1,15.6,7.7,7.6,15.1Z"/>
    <path class="st2" d="M817.6,508.6c-10.9,10.9-23.1,20.5-33.7,31.8-8.2,6.8-18.3-2.3-12.4-11.4l34.4-32.5-34.4-32.5c-5.2-8.3,2.4-16.1,11-12l42.5,40.5c4,7.3-3,11.7-7.4,16.2Z"/>
    <path class="st2" d="M749.8,444.2c6.7-1.6,11.8,4.7,10,11.1l-35.6,96.4c-5.2,9.5-18.7,2.4-14.8-7.8l35.3-95.7c.9-1.5,3.4-3.7,5-4.1Z"/>
    <path class="st5" d="M195,513v-119.5c0-1.1,2.4-1.4,3.4-1.6,16.5-1.9,48.7-.9,66.1,0s45.4,6.4,58.9,24.1c13.6,17.9,14.3,48.9,3.1,67.9-24.7,42.2-91,25.6-131.5,29Z"/>
  </g>
</svg>