<?xml version="1.0" encoding="UTF-8"?>
<svg id="Layer_1" xmlns="http://www.w3.org/2000/svg" version="1.1" viewBox="0 0 1000 1000">
  <!-- Generator: Adobe Illustrator 29.3.1, SVG Export Plug-In . SVG Version: 2.1.0 Build 151)  -->
  <defs>
    <style>
      .st0 {
        fill: #3364af;
      }

      .st1 {
        fill: #dbe8f7;
      }
    </style>
  </defs>
  <path class="st0" d="M483.3,608.6c17.6-18.5,37.3-35.2,55.4-53.3-4.3-21.8-6.8-44.1-5.9-66.5,1.5-41.2,15.5-81.7,42.5-113.1,2.5-2.9,19.4-18.4,19.1-20.1-21.5-22.1-52.9-33.2-83.3-36-55.1-5.1-113.6,10.5-150.5,53.5-1.1,1.3-8.2,10.3-7.6,11.1l58.1,36.4c2.1,0,9.9-10.2,12.6-12.6,38-34.2,133.5-31.4,113.2,39.4-6.7,23.3-30.4,44-47.5,60.6-39.6,38.5-81.8,74.4-120.2,114.1v51h-13.1v-57.1c0-1.4,13.8-11.4,13-14.9l-24.9-35.8-1.1-4.3c38.2-15.7,64.4-49.5,69.5-90.6.4-3.5,1-8.5,1.2-12s-.2-23.9-1-24.8-6.1.3-9.4-1.2c-10.4-4.5-43.7-26.8-53.5-34.4s-7.6-6.6-8.2-7.9c-1.1-2.4-.9-11.5,0-14.1,1.8-5.2,21-23.2,20.7-24.8-20.1-13.2-44.4-21.7-68.3-24.6-9-1.1-18.1-.7-27.1-2.2H112.6s0-12.1,0-12.1h166.2c33.3,2.2,66.5,9.4,93.9,29.3,13.3-8.6,26.1-16.9,41-22.7,45.8-17.6,105-17.4,150.9-.5,28-.4,63,.1,90,0,9.5-.9,23.2-6.8,33.8-8.7,36.9-6.6,80.5-4.9,116.4,5.9,32.7,9.8,60.3,29.3,82.5,54.9-5.7,9.2-59,54.1-59.6,59.5s3.8,7,5.3,9.9c18.4,36,21.4,77.4,2.2,113.7-1.5,2.9-8.8,12.7-8.4,14.6l59.4,59c.5,1.3-.2,1.9-.8,2.9-2.6,3.9-15.6,16-19.7,19.7-42.4,37.2-98.8,45.4-153.6,42.4-59.7-3.2-114.1-35.8-148.4-83.9h-80.3ZM726.6,319c-117.6,4.6-199.7,98.8-178.1,216.9,13.4,73.3,72.5,127.7,145,140.9,60.9,11.1,133.2-1.9,175.7-49.4l-50.1-49.1c-1.6-.3-7.6,6.9-9.5,8.4-68.4,53.5-175.5,15.9-181.7-74.7-5.7-82,56-138.1,137.4-121.2s38.7,16,53.9,29.8l50.1-49.9c-36.6-37.9-90.6-53.7-142.6-51.7ZM751.8,443.1c-1.6.4-4.2,2.6-5,4.1l-35.7,96.6c-4,10.3,9.6,17.5,14.9,7.9l35.9-97.4c1.8-6.4-3.4-12.8-10.1-11.2ZM697.1,465.8c8.1-7.5,3.7-18.4-7.7-15.2l-43,39.8c-7,8,4.6,15.8,10.1,21.3,10.1,10,21.3,19.2,31.3,29.3,6.8,5.1,16.3-2,12.9-9.8s-8.4-9-10.8-11.4c-7.1-7.1-16.5-14.1-23.3-21.2s-1.7-1.1-1.4-2.4l31.9-30.3ZM820.3,508.2c4.5-4.5,11.5-8.9,7.5-16.3l-42.9-40.9c-8.7-4.1-16.4,3.7-11.1,12.1l34.8,32.9-34.8,32.9c-6,9.2,4.2,18.3,12.5,11.5,10.7-11.4,23-21.2,34-32.1Z"/>
  <path class="st0" d="M191.4,512.6v-120.7c0-1.1,2.5-1.4,3.5-1.6,17-2,50-.9,67.8,0,43.5,2.3,72.8,22.2,69.2,69.3-2.3,30-30.5,53-60.1,53h-80.3Z"/>
  <path class="st0" d="M267.2,577.3c17.6,28.3,37.7,54.9,56.4,82.5s6.3,8.7,8.3,13.5h-140.4v-96h75.8Z"/>
  <path class="st1" d="M697.1,465.8l-31.9,30.3c-.3,1.3.8,1.7,1.4,2.4,6.8,7.1,16.1,14.1,23.3,21.2,2.4,2.4,9.8,9,10.8,11.4,3.4,7.8-6.1,15-12.9,9.8-10.1-10.1-21.2-19.3-31.3-29.3s-17.2-13.3-10.1-21.3l43-39.8c11.4-3.1,15.8,7.7,7.7,15.2Z"/>
  <path class="st1" d="M820.3,508.2c-11,11-23.4,20.7-34,32.1-8.3,6.8-18.5-2.4-12.5-11.5l34.8-32.9-34.8-32.9c-5.3-8.4,2.4-16.3,11.1-12.1l42.9,40.9c4,7.4-3,11.8-7.5,16.3Z"/>
  <path class="st1" d="M751.8,443.1c6.7-1.6,11.9,4.7,10.1,11.2l-35.9,97.4c-5.3,9.6-18.9,2.4-14.9-7.9l35.7-96.6c.9-1.5,3.5-3.7,5-4.1Z"/>
</svg>